<svg viewBox="0 0 66 66" xmlns="http://www.w3.org/2000/svg">
  <path d="M56.3 28.1v30.1c0 1.3-1 2.4-2.4 2.4H12.1c-1.4 0-2.4-1-2.4-2.4v-30l23.3-17 13.9 10.1z" fill="#6695ce"/>
  <path d="M56.3 28.1v9.1c-.7.2-1.6 0-2-.5-.7-.7-.8-1.9-1.6-2.4s-2 0-3-.4c-.6-.4-.9-1.3-.8-2.1l.5-2.4c.2-.8 0-1.7-.6-2.3-.6-.5-1.4-.5-2-1-1-.5-1.2-1.9-.9-3 .2-.6.6-1.2 1-1.8z" fill="#4d86c5"/>
  <path d="M54.1 41.5a3 3 0 0 1-2.3-1c-.4-.4-.6-1-.8-1.4l-.2-.4c-.3-.7-.7-1.1-1.1-1.3h-2c-1.5 0-2.5-1.5-2.8-2.8-.2-1.4.2-2.8.6-4.1.3-.9.5-2 0-2.5l-.5-.3h-.2c-1.3-.8-2-2.3-2.1-3.7 0-1.5.7-2.9 2-3.7h.3c.1 0 0 .3 0 .4-1.2.7-1.8 2-1.8 3.3 0 1.3.7 2.5 1.8 3.2l.2.1.5.4c.8.7.6 2 .3 3a8.2 8.2 0 0 0-.6 3.8c.2 1.1 1 2.4 2.4 2.5h.7a3 3 0 0 1 1.3 0c.6.2 1 .7 1.4 1.5l.2.4c.2.5.4 1 .7 1.3.9 1 2.5 1 3.6.4l.5-.2h.3v.4l-.6.3c-.5.2-1.2.4-1.8.4zM51.3 60.6H12c-1.4 0-2.4-1-2.4-2.4V34.4a8.6 8.6 0 0 0 4.7 5.2c.8.3 1.7.5 2.5 1 1.6 1 2.4 2.8 2.9 4.6.4 1.8.7 3.7 1.6 5.4 1 1.6 2.8 2.9 4.6 2.4 1.4-.3 2.5-1.7 4-1.9 1.8-.2 3.3 1.4 4.3 3s2.3 3.2 4.1 3.4c1.7.1 3.2-1.2 5-1.2 2 0 3.4 1.7 5 2.8.9.6 1.9 1.1 2.9 1.5z" fill="#4d86c5"/>
  <path d="M54 60.8H22s-.2 0-.2-.2.2-.3.3-.3h31.8c1.2 0 2.2-1 2.2-2.1v-30L33 11.6 10 28.3V38c0 .2-.2.3-.3.3l-.2-.2V27.8L33 11.1c0-.1.2-.1.2 0l23.4 16.8v30.3c0 1.4-1.1 2.6-2.6 2.6z" fill="#010101"/>
  <path d="M63.8 29c-.1.3-.4.7-.8.8L60 31c-.7.2-1.4 0-2-.3l-24.4-17a.8.8 0 0 0-1 0l-7.2 5L8 30.8a2.2 2.2 0 0 1-1.9.3L3 29.8a1.1 1.1 0 0 1-.3-2L5.4 26 25.7 12 32 7.5c.6-.4 1.4-.4 2 0l3 2.2 26.3 18.1c.3.3.5.7.5 1.1z" fill="#ffce3b"/>
  <path d="M37 9.7c0 .5-.3 1-.6 1.4-.5.5-1.1.8-1.7.7-1.2-.1-2-1.3-3.2-1.2-.8.1-1.4.8-2 1.4-.4.7-1 1.4-1.9 1.4-.7 0-1.3-.5-1.7-1.1l-.1-.4L32 7.5c.6-.4 1.4-.4 2 0z" fill="#fab815"/>
  <path d="M27 15.4c-.5 0-1-.1-1.5-.4a3.2 3.2 0 0 1-1.6-2l.2-.3c.1 0 .3 0 .3.2.2.7.7 1.4 1.3 1.7.8.5 2 .5 2.7 0l1.1-1 .4-.5c.7-.7 1.4-1 2-1.1.7 0 1.3.3 1.8.6l1 .5c1 .3 2 0 2.5-.8.5-.5.6-1.3.5-2l.1-.3c.2 0 .3 0 .3.2.2.8 0 1.8-.5 2.4-.7.9-1.9 1.3-3 1l-1.1-.6c-.5-.3-1-.5-1.5-.5-.6 0-1.1.3-1.7.9l-.4.4-1.2 1.1c-.5.4-1.1.5-1.7.5zM25.3 18.8 8 30.7a2.2 2.2 0 0 1-1.9.3L3 29.8a1.1 1.1 0 0 1-.3-2L5.4 26c.2.4.5.7.9 1 .6.3 1.3.3 2 0 1-.4 1.6-1.7 2.7-2.2 1.2-.5 2.9 0 4-.7 1-.6 1.2-1.8 2.2-2.4 1-.6 2.5-.1 3.6-.8.8-.4 1.3-1.4 2.1-1.9.7-.3 1.6-.3 2.4-.2z" fill="#fab815"/>
  <path d="M59.2 31.3c-.5 0-1-.1-1.4-.4l-24.5-17a.6.6 0 0 0-.6 0l-4.2 3-.3-.1v-.4l4.2-2.8a1 1 0 0 1 1.2 0l24.5 16.9a2 2 0 0 0 1.7.2l3.1-1c.4-.2.6-.5.6-.8 0-.3 0-.6-.3-.8L33.8 7.7c-.5-.3-1.1-.3-1.6 0L2.9 28c-.3.2-.5.6-.4.9 0 .3.3.6.6.7l1.7.6.2.3-.3.2-1.8-.6c-.5-.2-.8-.6-.9-1.2 0-.5.2-1 .6-1.2L31.9 7.3a2 2 0 0 1 2.2 0l29.3 20.3a1.4 1.4 0 0 1-.3 2.5L60 31c-.3.2-.5.2-.8.2z" fill="#010101"/>
  <path d="M40.5 35.6v25h-15v-25c0-1 .8-1.8 1.7-1.8h11.6c1 0 1.7.8 1.7 1.8z" fill="#2c449c"/>
  <path d="M40.5 35.6v6.6h-.2c-.9 0-1.8-.5-2-1.4v-1.1c0-.4-.2-.8-.6-.9l-1.3.3c-.4 0-.8-.4-.9-.8l-.3-1.2c0-.4-.3-.7-.7-.9h-1c-.8.1-1.6-.4-1.7-1.2-.1-.4 0-.8.1-1.2h6.9c1 0 1.7.8 1.7 1.8z" fill="#28387f"/>
  <path d="M40.5 44.6h-.1l-1-.8-.5-.6c-.3-.5-.6-.8-1.2-.7l-.8.2c-.3.2-.7.3-1.1.3-.8 0-1.3-.9-1.4-1.6V39.5c0-.5-.3-1.2-.8-1.4h-1c-.2 0-.5.1-.8 0-1.1 0-1.8-1.2-1.9-2.3 0-.7.2-1.5.5-2 0-.2.2-.2.3-.2l.1.3c-.2.6-.4 1.2-.4 2 0 .7.6 1.7 1.4 1.8h.8c.3-.1.7-.2 1.1 0 .8.3 1 1 1.1 1.8v.8l.1 1c0 .6.4 1.2 1 1.2.2 0 .5 0 .8-.2l.9-.3c1-.1 1.4.4 1.7 1l.5.5.8.7c.2 0 .2.2.1.3l-.2.1zM40.5 60v.6h-15V49.7c.4.8 1 1.5 1.8 1.8.6.2 1.3.2 1.9.5.8.4 1.2 1.2 1.5 2l.7 2.5c.4.8 1 1.5 2 1.6.9.1 1.8-.6 2.8-.5.7 0 1.4.4 2 1 .6.4 1.2 1 1.9 1.3h.4z" fill="#28387f"/>
  <path d="M40.5 60.8h-15a.2.2 0 0 1-.2-.2V52s0-.2.2-.2.2.1.2.2v8.3h14.6V35.6c0-.9-.7-1.5-1.5-1.5H27.6s-.2-.1-.2-.3.1-.2.2-.2h11.2c1 0 2 .9 2 2v25l-.3.2z" fill="#010101"/>
  <path d="M32.8 32.2a6.4 6.4 0 0 1-3.9-11.4c.3-.2.7-.1 1 .1.1.3.1.7-.2 1a5 5 0 1 0 6.1 0c-.2-.3-.3-.7 0-1s.6-.3.8 0c1.6 1.1 2.5 3 2.5 5 0 3.5-2.8 6.3-6.3 6.3z" fill="#fff"/>
  <path d="M34 26.4h-2.5a.6.6 0 0 1-.6-.6V18c0-.3.3-.6.6-.6h2.6c.3 0 .6.3.6.6v7.8c0 .4-.3.6-.6.6z" fill="#fff"/>
  <circle cx="37.6" cy="47.2" fill="#1f2b5c" r="1.6"/>
  <path d="M50.9 17.1c-.1 0-.2 0-.3-.2-1-3-3-4.5-6.2-4.2-.1 0-.2-.1-.2-.3s0-.2.2-.2c3.4-.3 5.7 1.3 6.7 4.6 0 .1 0 .2-.2.3z" fill="#010101"/>
  <path d="M54.1 16.3s-.2 0-.2-.2c-1.5-5-4.7-7.2-9.9-6.8-.1 0-.2 0-.2-.2s0-.3.2-.3c5.3-.4 8.8 2 10.3 7.2l-.1.3z" fill="#010101"/>
  <path d="m57.8 15.9-.2-.2c-2.2-7.2-7-10.5-14.5-10-.1 0-.2 0-.3-.2s.1-.3.3-.3c7.7-.5 12.7 3 15 10.3l-.2.4h-.1z" fill="#010101"/>
  <path d="M17 39c-.5 0-1 .3-1.2.6a2 2 0 0 0-.5 1.4c0-1-.7-2-1.6-2 .5 0 .9-.1 1.2-.5.3-.3.4-.8.4-1.3 0 .5.2 1 .5 1.3.3.4.7.6 1.1.6zM32 54.1c-.4 0-.8.2-1 .6a2 2 0 0 0-.5 1.3c0-1-.7-1.9-1.6-1.9.4 0 .8-.2 1.1-.6.3-.3.5-.8.5-1.3 0 .5.2 1 .5 1.3.2.4.6.6 1 .6zM27.3 15.2c-.4 0-.8.2-1 .5a2 2 0 0 0-.6 1.4c0-1-.7-2-1.5-2 .4 0 .8-.1 1-.5.4-.3.5-.8.5-1.3 0 .5.2 1 .5 1.3.3.4.7.6 1.1.6zM18.5 41.1c-.3 0-.5.1-.7.4-.2.2-.3.5-.3.8 0-.7-.4-1.2-1-1.2.3 0 .5-.1.7-.3.2-.2.3-.5.3-.8 0 .3.1.6.3.8s.4.3.7.3zM52.6 23.3c-.3.3-1.7-.2-3.2-1.2-1.4-1-2.4-2.2-2.2-2.6s1.7.2 3.2 1.2c1.5 1 2.4 2.2 2.2 2.6zM55 25c-.2 0-.6 0-1-.4-.5-.3-.8-.7-.7-.8s.6 0 1 .2.8.7.7 1zM53.7 50c.5 0 .9 1.7 1 3.9 0 2-.3 3.8-.7 3.8S53 56 53 54c0-2.1.3-3.9.7-3.9zM53.7 46.6c.2 0 .4.6.4 1.2 0 .7-.2 1.2-.4 1.2s-.3-.5-.3-1.2c0-.6.1-1.2.3-1.2zM27.3 40c-.3 0-.5-.4-.7-1-.1-.7-.2-1.7.4-2.8a3 3 0 0 1 2.5-1.5c.8 0 1.2.4 1.1.6 0 .2-.5.3-.9.5-.4.3-1 .7-1.2 1.3-.4.6-.6 1.3-.7 1.9-.2.5-.3 1-.5 1zM27.4 43c-.2 0-.5-.5-.5-1 0-.7.2-1.1.4-1.1s.3.4.3 1 0 1-.3 1z" fill="#fff"/>
</svg>
