<svg xmlns="http://www.w3.org/2000/svg" height="24" viewBox="0 -960 960 960" width="24">
  <path d="m370-80-16-128q-13-5-24-12t-23-15l-119 50L78-375l103-78-1-13v-27l1-14-103-78 110-190 119 50 23-15 24-12 16-128h220l16 128q13 5 25 12t22 15l119-50 110 190-103 78 1 14v27l-2 13 103 78-110 190-118-50-23 15-24 12-16 128H370Zm70-80h79l14-106q31-8 58-23t48-38l99 41 39-68-86-65q5-14 7-29t2-32q0-16-2-31t-7-30l86-65-39-68-99 42q-22-23-48-38t-58-24l-13-106h-79l-14 106q-31 8-57 24t-49 37l-99-41-39 68 86 64q-5 15-7 30t-2 32q0 16 2 31t7 30l-86 65 39 68 99-42q22 23 49 39t57 23l13 106Zm42-180q58 0 99-41t41-99q0-58-41-99t-99-41q-59 0-99 41t-41 99q0 58 41 99t99 41Zm-2-140Z"/>
</svg>
